<svg width="822" height="443" viewBox="0 0 822 443" fill="none"
    xmlns="http://www.w3.org/2000/svg">
    <g clip-path="url(#clip0_1_981)">
        <path d="M314.479 134.807C306.716 146.193 296.5 151.596 286.462 151.596C272.32 151.596 257.865 140.969 257.865 122.438C257.865 102.032 271.65 91.9849 287.667 91.9849C296.009 91.9849 312.204 94.7087 312.204 105.023C312.204 109.846 308.501 111.498 304.977 111.498C297.838 111.498 291.637 104.934 291.28 98.7721C290.076 98.4595 289.094 98.3256 288.113 98.3256C279.235 98.3256 274.639 107.747 274.639 117.616C274.639 128.466 280.216 139.853 292.262 139.853C298.597 139.853 305.512 136.682 311.089 130.52L314.479 134.807Z" fill="#184775"/>
        <path d="M379.838 143.38C372.7 147.89 367.123 150.167 363.955 150.167C356.505 150.167 351.017 145.568 351.017 136.593V111.587C351.017 107.211 347.85 105.113 344.682 105.113C341.515 105.113 338.124 107.301 338.124 111.587V135.253C338.124 141.594 338.437 142.71 344.013 144.362V149.855H313.007V144.362C318.361 143.246 318.94 141.639 318.94 135.253V84.6171C318.94 81.2235 317.647 78.1424 314.791 78.1424H312.382V72.6501H338.124V99.6204C340.623 93.8155 346.333 90.8685 352.356 90.8685C361.011 90.8685 370.112 97.1199 370.112 109.712V137.352C370.112 139.227 370.335 140.656 371.986 140.656C372.967 140.656 374.618 140.12 377.027 138.692L379.882 143.425L379.838 143.38Z" fill="#184775"/>
        <path d="M495.341 134.807C487.579 146.193 477.362 151.596 467.324 151.596C453.182 151.596 438.727 140.969 438.727 122.438C438.727 102.032 452.513 91.9849 468.529 91.9849C476.872 91.9849 493.066 94.7087 493.066 105.023C493.066 109.846 489.363 111.498 485.839 111.498C478.701 111.498 472.499 104.934 472.143 98.7721C470.938 98.4595 469.957 98.3256 468.975 98.3256C460.097 98.3256 455.502 107.747 455.502 117.616C455.502 128.466 461.078 139.853 473.124 139.853C479.459 139.853 486.374 136.682 491.951 130.52L495.341 134.807Z" fill="#184775"/>
        <path d="M526.258 145.568C530.764 145.568 534.69 139.987 534.69 128.466C534.69 109.489 527.151 98.7721 520.994 98.7721C516.622 98.7721 512.874 104.264 512.874 115.874C512.874 135.253 520.102 145.568 526.258 145.568ZM524.385 92.0742C539.062 92.0742 553.606 102.032 553.606 121.679C553.606 141.326 539.062 152.266 524.385 152.266C509.707 152.266 495.252 141.326 495.252 121.679C495.252 102.032 509.796 92.0742 524.385 92.0742Z" fill="#184775"/>
        <path d="M584.077 144.363V149.855H553.071V144.363C558.335 142.71 558.871 141.728 558.871 135.387V84.4385C558.871 79.3927 557.354 78.1871 555.034 78.1871H552.491V72.6948H578.01V135.298C578.01 141.773 579.214 143.068 584.033 144.407" fill="#184775"/>
        <path d="M617.671 121.768C616.779 121.679 615.931 121.545 614.593 121.545C603.841 121.545 601.566 128.109 601.566 132.842C601.566 137.575 603.975 141.415 608.481 141.415C613.388 141.415 617.671 137.039 617.671 131.011V121.813V121.768ZM645.51 146.417C642.342 148.738 636.096 151.016 630.609 151.016C625.121 151.016 618.34 148.605 618.34 142.889V141.817C615.173 149.274 609.596 151.016 604.019 151.016C591.84 151.016 584.746 142.8 584.746 133.155C584.746 125.028 589.877 115.606 611.782 115.606C614.191 115.606 615.931 115.74 617.716 115.829V109.489C617.716 101.808 616.288 98.4148 612.005 98.4148C610.265 98.4148 608.391 98.9506 606.295 100.156C604.198 108.819 599.067 112.302 594.784 112.302C591.082 112.302 588.003 109.667 588.003 105.515C588.003 96.9413 600.807 92.342 612.407 92.342C624.006 92.342 635.739 97.2538 635.739 111.632V136.28C635.739 141.862 636.186 143.291 638.282 143.291C639.576 143.291 641.138 142.755 643.19 141.862L645.465 146.372L645.51 146.417Z" fill="#184775"/>
        <path d="M679.327 143.827C672.189 148.113 666.612 150.167 662.017 150.167C655.102 150.167 649.302 145.345 649.302 135.923V99.3079H642.833V93.8156H649.302V90.1095L662.864 76.7136H668.352V93.7263H678.434V99.2186H668.352V136.593C668.352 138.87 669.556 140.746 671.653 140.746C673.17 140.746 675.579 139.853 676.918 138.87L679.327 143.827Z" fill="#184775"/>
        <path d="M697.083 112.346H711.225C713.5 112.346 714.17 111.364 714.17 108.506C714.17 102.925 711.627 98.8613 706.942 98.8613C702.659 98.8613 698.198 102.389 697.083 112.346ZM735.406 129.895C729.918 144.273 718.096 151.73 705.961 151.73C692.265 151.73 677.721 142.175 677.721 121.277C677.721 102.969 688.785 92.342 705.648 92.342C724.386 92.342 730.275 102.523 730.275 108.774C730.275 112.927 730.275 117.437 718.988 119.089H696.414C696.19 120.83 696.101 122.483 696.101 123.912C696.101 134.226 701.812 140.478 712.43 140.478C722.066 140.478 726.572 135.343 730.81 126.903L735.406 129.984V129.895Z" fill="#184775"/>
        <path d="M641.004 163.295V168.787C636.944 168.787 634.312 171.199 633.018 174.592L616.065 218.977C606.964 242.777 598.889 244.608 584.211 244.608C576.091 244.608 570.961 239.026 570.961 234.07C570.961 230.14 574.039 226.747 581.49 226.747C587.825 226.747 596.257 235.32 597.372 235.633C598.487 235.409 600.986 234.74 602.503 231.703L607.098 222.817L587.468 178.209C583.943 170.216 578.813 168.787 575.645 168.787V163.295H609.819V168.787C606.741 168.787 605.759 170.082 605.759 171.869C605.759 172.94 606.072 174.28 606.652 175.575L616.199 199.598L622.98 182.049C623.872 179.861 624.72 176.914 624.72 174.28C624.72 171.199 623.515 168.698 619.679 168.698V163.34H641.048L641.004 163.295Z" fill="#184775"/>
        <path d="M665.764 215.048C670.27 215.048 674.196 209.466 674.196 197.946C674.196 178.968 666.656 168.252 660.5 168.252C656.128 168.252 652.38 173.744 652.38 185.354C652.38 204.778 659.608 215.048 665.764 215.048ZM663.89 161.554C678.568 161.554 693.112 171.511 693.112 191.158C693.112 210.806 678.568 221.746 663.89 221.746C649.213 221.746 634.758 210.806 634.758 191.158C634.758 171.511 649.302 161.554 663.89 161.554Z" fill="#184775"/>
        <path d="M730.677 183.255C730.677 175.039 726.84 169.011 720.817 169.011C715.33 169.011 712.92 174.056 712.92 179.772C712.92 186.782 716.534 194.775 723.003 194.775C728.267 194.775 730.677 189.73 730.677 183.255ZM714.348 214.735C711.493 217.37 709.307 222.951 709.307 229.738C709.307 236.526 713.902 243.759 722.468 243.759C731.033 243.759 734.959 237.508 734.959 229.203C734.959 221.522 731.346 215.807 723.137 215.807C720.594 215.807 716.579 215.271 714.393 214.69M756.329 157.714C756.329 160.884 753.697 162.447 750.396 162.447C748.12 162.447 745.265 161.688 743.391 160.571C741.741 160.884 740.447 161.554 740.447 164.501C740.447 171.868 747.897 172.717 747.897 183.701C747.897 194.686 740.358 203.081 722.468 203.081C720.817 203.081 719.746 204.286 719.746 206.162C719.746 207.68 720.505 209.02 722.468 209.02C732.773 209.02 752.135 214.065 752.135 230.051C752.135 241.125 742.633 250.323 722.334 250.323C700.429 250.323 692.131 239.696 692.131 230.364C692.131 221.924 698.823 211.833 709.753 211.074C708.861 209.868 708.682 208.662 708.682 207.68C708.682 204.063 711.091 202.545 711.091 202.545C700.786 199.821 695.878 190.801 695.878 182.049C695.878 168.341 708.147 161.554 720.192 161.554C725.68 161.554 730.81 162.983 735.182 165.93C734.201 164.724 733.666 162.402 733.666 160.571C733.666 155.66 737.279 150.257 744.507 149.721C752.849 149.721 756.329 154.231 756.329 157.714Z" fill="#184775"/>
        <path d="M759.987 150.703C759.987 144.228 765.564 140.165 771.721 140.165C777.877 140.165 783.677 144.228 783.677 150.926C783.677 157.624 777.967 161.911 771.944 161.911C765.609 161.911 759.987 157.178 759.987 150.748M788.585 213.887V219.379H757.712V213.887C763.2 212.592 763.601 211.699 763.601 204.778V175.173C763.601 171.243 763.512 168.832 760.21 168.832H757.043V163.34H782.651V204.778C782.651 211.252 783.856 212.681 788.585 213.887Z" fill="#184775"/>
        <path d="M347.314 50.2344V42.822H378.678V50.2344H367.39V79.4819H358.691V50.2344H347.314Z" fill="#184775"/>
        <path d="M383.63 79.4819V42.822H392.374V57.6467H409.238V42.822H417.937V79.4819H409.238V64.6126H392.374V79.4819H383.63Z" fill="#184775"/>
        <path d="M453.673 42.822V50.2344H433.418V57.6467H449.925V64.6126H433.418V72.0696H453.673V79.4819H424.674V42.822H453.673Z" fill="#184775"/>
        <mask id="mask0_1_981" style="mask-type:luminance" maskUnits="userSpaceOnUse" x="0" y="0" width="822" height="443">
            <path d="M822 0H0V443H822V0Z" fill="white"/>
        </mask>
        <g mask="url(#mask0_1_981)">
            <path d="M418.919 117.705C418.919 121.813 417.759 134.851 410.978 145.568C410.978 145.568 394.426 136.146 393.623 121.545C392.865 107.792 400.36 102.612 406.249 110.65C406.249 110.65 408.167 101.273 412.718 101.049C417.268 100.826 418.874 110.56 418.874 117.705M420.391 92.6546C409.595 90.2433 405 102.969 405 102.969C398.263 92.8778 388.671 97.9682 388.671 97.9682C376.67 104.934 379.035 125.162 379.035 125.162C382.425 151.194 411.335 151.596 411.335 151.596C431.5 143.916 433.597 124.626 433.552 115.249C433.552 107.658 430.741 94.9765 420.347 92.6546" fill="#184775"/>
            <path d="M744.864 344.184C745.221 343.335 745.756 342.621 746.381 342.04C747.05 341.46 747.808 341.013 748.7 340.745C749.593 340.433 750.574 340.299 751.645 340.299C752.269 340.299 752.983 340.388 753.831 340.567C754.679 340.745 755.526 341.013 756.285 341.37C757.043 341.728 757.712 342.219 758.248 342.755C758.783 343.335 759.051 344.005 759.051 344.809V349.319C759.051 350.078 758.828 350.792 758.292 351.328C757.757 351.908 757.132 352.355 756.374 352.712C755.615 353.069 754.812 353.337 753.965 353.471C753.117 353.65 752.403 353.739 751.779 353.739C750.753 353.739 749.771 353.605 748.834 353.382C747.897 353.114 747.139 352.712 746.47 352.176C745.801 351.641 745.265 350.926 744.864 350.122C744.462 349.274 744.284 348.292 744.284 347.175C744.284 346.059 744.462 345.077 744.819 344.228M742.321 351.149C742.856 352.266 743.57 353.203 744.507 353.918C745.444 354.632 746.514 355.168 747.764 355.525C749.013 355.883 750.351 356.017 751.779 356.017C752.448 356.017 753.073 356.017 753.742 355.883C754.411 355.793 755.036 355.659 755.66 355.481C756.285 355.302 756.909 355.034 757.445 354.722C758.025 354.409 758.56 354.007 759.006 353.516V355.659H761.772L761.683 331.859H758.917V340.745C757.935 339.763 756.775 339.093 755.437 338.647C754.099 338.245 752.805 338.021 751.466 338.021C750.083 338.021 748.745 338.245 747.54 338.602C746.291 339.004 745.265 339.584 744.328 340.343C743.436 341.103 742.722 342.04 742.187 343.201C741.652 344.318 741.384 345.657 741.384 347.131C741.384 348.693 741.652 349.988 742.187 351.149M732.506 356.686L729.963 333.02L727.197 333.333L729.74 356.999L732.506 356.686ZM718.185 341.147C717.203 341.058 716.177 341.147 715.107 341.281C714.036 341.46 712.965 341.862 711.939 342.487C710.913 343.112 710.155 343.96 709.619 345.077L709.218 342.71L706.496 343.201L709.53 360.259L712.251 359.767L710.556 350.033C710.422 349.185 710.422 348.381 710.645 347.666C710.868 346.952 711.181 346.282 711.627 345.702C712.073 345.121 712.653 344.675 713.322 344.318C713.991 343.96 714.75 343.692 715.553 343.558C716.043 343.469 716.445 343.424 716.846 343.469C717.248 343.469 717.65 343.514 718.051 343.603L718.23 341.103L718.185 341.147ZM696.235 357.937C696.101 358.83 695.789 359.633 695.254 360.348C694.763 361.062 694.094 361.643 693.291 362.134C692.488 362.625 691.595 363.027 690.569 363.295C689.543 363.563 688.562 363.697 687.625 363.697C686.688 363.697 685.796 363.518 685.037 363.161C684.234 362.804 683.565 362.313 682.985 361.598C682.405 360.884 681.959 359.991 681.647 358.919C681.334 357.803 681.245 356.82 681.379 355.883C681.513 354.99 681.825 354.141 682.316 353.427C682.807 352.712 683.431 352.087 684.234 351.551C685.037 351.06 685.974 350.614 687 350.346C688.071 350.078 689.052 349.944 689.989 349.944C690.926 349.944 691.818 350.167 692.622 350.524C693.425 350.881 694.094 351.417 694.674 352.132C695.254 352.846 695.7 353.784 696.012 354.856C696.324 355.927 696.414 356.954 696.235 357.847M696.771 350.435C695.967 349.497 694.986 348.783 693.915 348.292C692.845 347.8 691.64 347.577 690.346 347.577C689.052 347.577 687.714 347.756 686.376 348.113C685.037 348.47 683.788 349.006 682.673 349.676C681.557 350.346 680.665 351.194 679.996 352.132C679.327 353.114 678.836 354.23 678.658 355.436C678.434 356.686 678.524 358.026 678.97 359.544C679.371 361.062 679.996 362.268 680.799 363.206C681.602 364.143 682.539 364.858 683.654 365.304C684.725 365.751 685.93 365.974 687.223 365.974C688.517 365.974 689.855 365.796 691.194 365.394C692.532 364.992 693.781 364.501 694.897 363.831C696.012 363.161 696.904 362.357 697.618 361.42C698.287 360.482 698.778 359.365 699.001 358.16C699.224 356.954 699.09 355.57 698.689 354.052C698.287 352.578 697.663 351.328 696.815 350.39M669.869 353.248L667.058 354.141L667.147 369.814L657.332 357.222L653.808 358.338L652.96 374.28L644.082 361.375L641.272 362.268L651.756 377.137L655.414 375.976L656.306 360.169L666.121 372.627L669.735 371.466L669.869 353.248ZM605.581 380.754C605.492 379.861 605.581 379.013 605.804 378.254C606.072 377.495 606.429 376.78 606.919 376.2C607.41 375.574 608.035 375.083 608.704 374.637C609.418 374.19 610.176 373.878 610.979 373.61C611.782 373.386 612.585 373.253 613.433 373.208C614.236 373.208 615.039 373.297 615.797 373.565C616.556 373.788 617.225 374.19 617.85 374.681C618.474 375.173 618.965 375.842 619.366 376.646L605.581 380.754ZM622.802 377.986L622.489 376.914C622.043 375.53 621.419 374.413 620.571 373.52C619.723 372.627 618.742 372.002 617.671 371.556C616.556 371.109 615.396 370.886 614.102 370.886C612.853 370.886 611.559 371.065 610.31 371.422C608.972 371.824 607.767 372.404 606.696 373.119C605.626 373.833 604.778 374.726 604.109 375.708C603.44 376.691 602.993 377.807 602.815 379.057C602.636 380.308 602.726 381.603 603.127 383.031C603.573 384.505 604.198 385.711 605.046 386.648C605.893 387.541 606.875 388.256 607.945 388.658C609.061 389.104 610.265 389.283 611.559 389.283C612.853 389.283 614.191 389.06 615.53 388.658C616.556 388.345 617.537 387.988 618.43 387.586C619.322 387.184 620.125 386.693 620.839 386.068C621.508 385.443 622.133 384.728 622.579 383.925C623.025 383.121 623.382 382.138 623.56 380.977L621.017 380.888C620.883 381.737 620.616 382.451 620.259 383.031C619.902 383.657 619.411 384.148 618.876 384.594C618.34 385.041 617.716 385.398 617.047 385.711C616.377 385.979 615.664 386.246 614.905 386.47C614.013 386.738 613.165 386.872 612.228 386.916C611.336 386.916 610.488 386.827 609.685 386.559C608.882 386.291 608.169 385.889 607.544 385.309C606.919 384.728 606.429 383.969 606.072 383.031L622.757 378.075L622.802 377.986ZM597.506 393.659L595.186 383.567C594.918 382.317 594.472 381.335 593.848 380.531C593.223 379.727 592.509 379.102 591.617 378.7C590.769 378.298 589.788 378.075 588.717 378.03C587.646 377.986 586.531 378.12 585.326 378.388C583.943 378.7 582.694 379.281 581.579 380.04C580.464 380.799 579.616 381.87 578.947 383.21L576.85 374.056L574.173 374.681L579.527 397.856L582.204 397.231L580.018 387.765C579.794 386.872 579.839 386.023 580.107 385.219C580.374 384.416 580.776 383.746 581.356 383.121C581.936 382.496 582.56 381.96 583.364 381.558C584.122 381.111 584.925 380.843 585.728 380.665C587.423 380.263 588.896 380.352 590.1 380.933C591.305 381.513 592.108 382.63 592.509 384.237L594.829 394.329L597.506 393.703V393.659ZM571.05 398.347L570.247 396.115C570.247 396.115 569.801 396.427 569.533 396.561C569.266 396.695 568.998 396.829 568.686 396.918C568.373 397.008 568.061 397.097 567.793 397.186C567.481 397.276 567.214 397.32 566.946 397.32C566.321 397.365 565.741 397.41 565.206 397.32C564.671 397.32 564.18 397.142 563.778 396.918C563.377 396.695 563.065 396.383 562.797 395.936C562.529 395.534 562.395 394.954 562.306 394.284L561.325 384.684L568.686 383.925L568.463 381.647L561.101 382.406L560.566 376.959L557.8 377.227L558.335 382.674L554.454 383.076L554.677 385.353L558.559 384.952L559.54 394.597C559.674 395.713 559.942 396.606 560.388 397.276C560.834 397.945 561.414 398.481 562.083 398.883C562.752 399.24 563.555 399.508 564.447 399.598C565.295 399.687 566.232 399.687 567.169 399.598C567.793 399.553 568.463 399.374 569.177 399.151C569.89 398.928 570.56 398.66 571.05 398.347ZM534.11 392.23C533.754 391.56 533.263 390.98 532.594 390.533C531.924 390.042 531.166 389.64 530.274 389.327C529.381 388.97 528.489 388.702 527.552 388.434C526.615 388.167 525.723 387.899 524.831 387.675C523.939 387.452 523.136 387.184 522.466 386.872C521.797 386.559 521.262 386.246 520.86 385.845C520.459 385.443 520.325 384.996 520.414 384.416C520.503 383.835 520.771 383.389 521.173 383.076C521.574 382.764 522.109 382.54 522.689 382.406C523.269 382.272 523.939 382.228 524.652 382.272C525.366 382.272 526.08 382.362 526.794 382.496C527.508 382.585 528.177 382.764 528.757 382.897C529.337 383.076 529.872 383.299 530.318 383.567C530.764 383.835 531.166 384.192 531.568 384.594C531.924 384.996 532.237 385.487 532.46 386.113L535.137 385.755C534.913 384.862 534.557 384.103 534.021 383.478C533.486 382.853 532.906 382.317 532.147 381.87C531.434 381.424 530.631 381.111 529.783 380.843C528.935 380.576 528.043 380.397 527.151 380.263C526.125 380.084 525.099 379.995 524.028 379.995C522.957 379.995 521.976 380.129 521.083 380.397C520.191 380.665 519.433 381.111 518.763 381.692C518.139 382.272 517.737 383.076 517.559 384.148C517.425 385.041 517.559 385.8 517.871 386.38C518.228 387.006 518.719 387.541 519.388 387.988C520.057 388.434 520.816 388.792 521.708 389.104C522.6 389.417 523.492 389.685 524.429 389.953C525.366 390.221 526.259 390.444 527.151 390.712C528.043 390.98 528.801 391.248 529.515 391.56C530.184 391.873 530.72 392.275 531.121 392.721C531.478 393.168 531.612 393.703 531.523 394.373C531.434 394.998 531.166 395.445 530.675 395.757C530.184 396.07 529.649 396.249 528.98 396.338C528.311 396.427 527.597 396.427 526.838 396.338C526.08 396.249 525.366 396.204 524.697 396.07C523.983 395.936 523.269 395.802 522.645 395.624C522.02 395.445 521.396 395.177 520.905 394.864C520.37 394.552 519.879 394.15 519.477 393.659C519.076 393.168 518.719 392.587 518.407 391.873L515.685 392.319C515.953 393.346 516.354 394.195 516.934 394.909C517.514 395.624 518.184 396.204 518.987 396.651C519.745 397.097 520.593 397.454 521.53 397.722C522.466 397.99 523.403 398.169 524.385 398.303C525.366 398.437 526.437 398.571 527.508 398.615C528.623 398.66 529.649 398.615 530.631 398.347C531.612 398.124 532.415 397.722 533.129 397.142C533.798 396.561 534.244 395.713 534.423 394.597C534.557 393.659 534.423 392.9 534.11 392.23ZM494.538 378.745C494.985 377.941 495.52 377.316 496.145 376.825C496.814 376.334 497.483 376.021 498.241 375.798C499 375.574 499.803 375.53 500.606 375.574C501.409 375.619 502.257 375.798 503.015 376.066C503.818 376.334 504.576 376.691 505.246 377.182C505.915 377.628 506.495 378.209 506.986 378.834C507.476 379.459 507.789 380.174 508.012 380.933C508.235 381.692 508.279 382.54 508.101 383.433L494.494 378.7L494.538 378.745ZM510.153 386.559L510.51 385.487C510.956 384.103 511.09 382.808 510.912 381.603C510.733 380.397 510.332 379.325 509.707 378.298C509.082 377.316 508.235 376.423 507.209 375.664C506.183 374.905 505.067 374.324 503.818 373.878C502.524 373.431 501.23 373.163 499.937 373.163C498.643 373.163 497.438 373.342 496.323 373.744C495.208 374.146 494.182 374.815 493.334 375.708C492.442 376.601 491.772 377.762 491.282 379.147C490.791 380.62 490.612 381.96 490.746 383.165C490.88 384.416 491.282 385.532 491.951 386.514C492.575 387.497 493.468 388.39 494.494 389.149C495.565 389.908 496.769 390.488 498.108 390.98C499.134 391.337 500.115 391.605 501.097 391.828C502.078 392.007 503.015 392.096 503.907 392.007C504.799 391.917 505.692 391.694 506.584 391.292C507.432 390.89 508.279 390.31 509.082 389.461L507.075 387.899C506.495 388.479 505.87 388.926 505.201 389.194C504.532 389.461 503.863 389.595 503.149 389.64C502.435 389.64 501.721 389.64 501.007 389.461C500.294 389.327 499.58 389.104 498.821 388.836C497.974 388.524 497.171 388.122 496.412 387.631C495.654 387.139 495.029 386.559 494.538 385.845C494.048 385.175 493.735 384.416 493.557 383.567C493.378 382.719 493.423 381.826 493.691 380.843L510.108 386.559H510.153ZM477.541 383.835C477.095 384.014 476.649 384.058 476.113 384.014C475.578 383.969 475.042 383.88 474.507 383.701C473.927 383.523 473.392 383.344 472.901 383.121C472.41 382.898 471.92 382.674 471.518 382.496C471.116 382.272 470.804 382.138 470.581 382.004C470.358 381.87 470.046 381.692 469.644 381.469C469.243 381.245 468.841 380.977 468.35 380.665C467.904 380.352 467.414 379.995 466.967 379.638C466.521 379.281 466.164 378.879 465.852 378.432C465.54 378.03 465.361 377.584 465.228 377.137C465.138 376.691 465.228 376.244 465.406 375.798C465.584 375.485 465.807 375.262 466.12 375.128C466.432 374.994 466.744 374.949 467.057 374.949C467.369 374.949 467.726 375.039 468.038 375.173C468.35 375.307 468.663 375.44 468.93 375.574L476.782 379.816C477.05 379.95 477.318 380.129 477.585 380.352C477.853 380.576 478.121 380.799 478.299 381.067C478.478 381.335 478.612 381.603 478.656 381.915C478.701 382.228 478.656 382.54 478.478 382.897C478.255 383.344 477.898 383.657 477.496 383.791M482.002 373.52C481.333 373.788 480.664 373.878 479.905 373.833C479.147 373.788 478.433 373.61 477.675 373.297C476.916 373.029 476.247 372.717 475.667 372.404C475.042 372.092 474.418 371.69 473.793 371.198C473.124 370.752 472.589 370.216 472.143 369.636C471.696 369.055 471.429 368.43 471.295 367.716C471.161 367.046 471.295 366.287 471.741 365.528C472.187 364.724 472.678 364.233 473.347 363.965C473.972 363.697 474.686 363.608 475.399 363.652C476.113 363.697 476.872 363.875 477.63 364.143C478.388 364.411 479.058 364.724 479.682 365.081C480.307 365.394 480.931 365.795 481.556 366.287C482.225 366.778 482.761 367.269 483.207 367.894C483.653 368.475 483.965 369.144 484.099 369.814C484.233 370.484 484.099 371.243 483.653 372.002C483.251 372.761 482.671 373.297 482.047 373.565M491.505 366.063C491.237 365.662 490.836 365.349 490.3 365.036C489.319 364.501 488.382 364.367 487.49 364.679C486.597 364.992 485.794 365.483 484.991 366.242C484.411 365.572 483.742 364.992 483.028 364.456C482.314 363.92 481.556 363.474 480.753 363.027C479.861 362.536 478.879 362.134 477.764 361.777C476.693 361.42 475.578 361.241 474.552 361.241C473.481 361.241 472.499 361.42 471.563 361.911C470.626 362.357 469.867 363.116 469.287 364.233C468.797 365.126 468.574 366.019 468.574 366.823C468.574 367.671 468.752 368.43 469.064 369.189C468.574 369.189 468.038 369.278 467.547 369.412C467.057 369.591 466.655 369.904 466.387 370.395C466.209 370.707 466.164 371.064 466.164 371.511C466.164 371.958 466.343 372.404 466.7 372.851C465.897 372.761 465.183 372.851 464.514 373.074C463.845 373.297 463.309 373.833 462.908 374.592C462.506 375.307 462.328 375.976 462.372 376.646C462.372 377.316 462.551 377.941 462.863 378.522C463.175 379.102 463.577 379.683 464.112 380.218C464.648 380.754 465.183 381.245 465.807 381.737C466.432 382.183 467.057 382.63 467.681 382.987C468.306 383.344 468.93 383.701 469.466 384.014C470.269 384.46 471.25 384.907 472.321 385.398C473.392 385.889 474.507 386.246 475.578 386.425C476.648 386.604 477.675 386.559 478.656 386.291C479.638 386.023 480.396 385.353 480.976 384.282C481.333 383.612 481.467 382.942 481.378 382.317C481.288 381.692 481.021 381.111 480.574 380.531C480.173 379.995 479.638 379.459 479.013 378.968C478.388 378.477 477.719 378.075 477.05 377.718L470.492 374.19C470.18 374.012 469.867 373.833 469.555 373.61C469.243 373.431 469.02 373.208 468.797 372.94C468.574 372.717 468.44 372.449 468.35 372.225C468.261 372.002 468.306 371.734 468.44 371.466C468.618 371.154 468.841 370.931 469.064 370.841C469.332 370.752 469.6 370.663 469.957 370.618C470.581 371.422 471.25 372.136 472.098 372.761C472.901 373.386 473.749 373.922 474.596 374.369C475.489 374.86 476.47 375.262 477.585 375.664C478.656 376.021 479.727 376.2 480.798 376.244C481.868 376.244 482.85 376.021 483.787 375.619C484.724 375.217 485.482 374.413 486.107 373.252C486.597 372.359 486.82 371.377 486.82 370.35C486.82 369.323 486.508 368.385 486.017 367.537C486.508 367.135 486.999 366.867 487.49 366.733C487.98 366.599 488.56 366.733 489.229 367.09C489.586 367.269 489.854 367.537 490.077 367.805L491.594 366.063H491.505ZM456.528 368.698L462.595 360.303C463.354 359.276 463.8 358.294 464.023 357.267C464.246 356.284 464.201 355.302 463.934 354.409C463.666 353.516 463.22 352.623 462.551 351.775C461.882 350.926 461.078 350.167 460.052 349.453C458.892 348.604 457.643 348.024 456.349 347.711C455.011 347.399 453.673 347.399 452.245 347.8L453.985 345.434L451.754 343.782L441.582 357.803L443.813 359.455L449.524 351.596C450.059 350.837 450.728 350.301 451.487 349.988C452.245 349.676 453.048 349.542 453.896 349.542C454.743 349.542 455.546 349.72 456.394 350.033C457.197 350.346 457.956 350.748 458.625 351.194C460.052 352.221 460.945 353.382 461.302 354.677C461.658 355.972 461.346 357.311 460.365 358.651L454.253 367.046L456.483 368.698H456.528ZM436.363 345.3C435.872 345.836 435.292 346.148 434.623 346.193C433.909 346.238 433.195 346.193 432.481 345.97C431.723 345.746 431.009 345.434 430.295 345.032C429.581 344.585 428.957 344.184 428.466 343.737C428.02 343.38 427.574 342.889 427.039 342.397C426.503 341.862 426.102 341.326 425.745 340.701C425.388 340.076 425.209 339.495 425.165 338.825C425.165 338.2 425.343 337.575 425.879 336.994C426.682 336.101 427.574 335.789 428.645 336.146C429.715 336.503 430.831 337.173 432.08 338.289L438.013 343.514L436.407 345.345L436.363 345.3ZM434.444 351.641L441.984 343.067C442.787 342.13 443.278 341.192 443.367 340.209C443.501 339.227 443.367 338.245 443.01 337.352C442.653 336.414 442.118 335.521 441.404 334.628C440.69 333.779 439.932 332.976 439.129 332.261C438.46 331.681 437.746 331.145 436.943 330.654C436.14 330.163 435.337 329.761 434.444 329.493C433.597 329.225 432.704 329.091 431.812 329.136C430.92 329.136 430.072 329.403 429.225 329.895L430.697 331.993C431.277 331.725 431.901 331.591 432.526 331.591C433.151 331.591 433.775 331.725 434.355 331.949C434.935 332.172 435.515 332.485 436.095 332.842C436.675 333.199 437.166 333.601 437.612 333.958C438.147 334.449 438.683 334.985 439.218 335.566C439.709 336.146 440.11 336.771 440.378 337.396C440.646 338.021 440.735 338.691 440.69 339.316C440.646 339.986 440.333 340.611 439.753 341.281L439.218 341.906L433.061 336.503C432.348 335.878 431.544 335.253 430.741 334.717C429.938 334.181 429.091 333.824 428.288 333.601C427.485 333.378 426.682 333.378 425.879 333.601C425.076 333.779 424.317 334.271 423.648 335.074C422.8 336.057 422.354 336.994 422.31 337.932C422.265 338.87 422.443 339.808 422.845 340.656C423.246 341.549 423.826 342.353 424.585 343.157C425.299 343.96 426.057 344.675 426.771 345.3C427.752 346.148 428.823 346.818 430.028 347.354C431.232 347.89 432.481 348.113 433.82 347.979L432.303 349.676L434.4 351.507L434.444 351.641ZM414.279 333.02L421.685 325.787C422.577 324.894 423.202 324.001 423.603 323.063C423.96 322.125 424.094 321.187 424.005 320.205C423.916 319.267 423.603 318.33 423.068 317.347C422.533 316.41 421.863 315.516 421.016 314.668C420.034 313.641 418.874 312.837 417.625 312.301C416.376 311.766 415.038 311.587 413.565 311.721L420.257 305.157L418.339 303.192L401.341 319.848L403.26 321.813L410.175 315.025C410.844 314.356 411.602 313.954 412.405 313.775C413.208 313.596 414.011 313.596 414.859 313.73C415.662 313.909 416.465 314.177 417.224 314.623C417.982 315.07 418.651 315.561 419.231 316.142C420.48 317.392 421.15 318.687 421.283 320.026C421.417 321.366 420.882 322.616 419.722 323.777L412.316 331.011L414.234 332.976L414.279 333.02ZM399.289 309.846L398.04 307.524C397.371 307.836 396.657 307.97 395.988 307.926C395.274 307.881 394.605 307.702 393.98 307.39C393.311 307.077 392.731 306.72 392.106 306.229C391.526 305.782 390.991 305.291 390.545 304.755C389.831 303.951 389.251 303.148 388.85 302.299C388.448 301.451 388.18 300.558 388.136 299.709C388.091 298.861 388.225 297.968 388.582 297.12C388.939 296.271 389.563 295.467 390.411 294.664C391.259 293.905 392.106 293.369 392.999 293.101C393.891 292.833 394.738 292.744 395.631 292.833C396.478 292.967 397.326 293.235 398.174 293.726C399.021 294.217 399.78 294.842 400.494 295.646C400.94 296.137 401.386 296.718 401.787 297.343C402.189 297.968 402.501 298.638 402.769 299.308C402.992 299.977 403.126 300.692 403.081 301.406C403.081 302.121 402.858 302.79 402.457 303.46L404.598 304.889C405.133 303.951 405.446 302.969 405.49 301.987C405.535 301.004 405.446 300.067 405.133 299.129C404.866 298.191 404.464 297.298 403.929 296.45C403.393 295.601 402.814 294.842 402.189 294.128C401.252 293.101 400.271 292.252 399.111 291.627C397.995 290.957 396.835 290.556 395.631 290.377C394.426 290.198 393.222 290.288 392.017 290.6C390.813 290.957 389.653 291.627 388.582 292.61C387.422 293.637 386.619 294.753 386.173 295.914C385.727 297.075 385.504 298.236 385.593 299.441C385.682 300.647 385.994 301.808 386.619 303.014C387.199 304.175 387.957 305.291 388.894 306.363C389.563 307.122 390.277 307.792 391.08 308.417C391.883 309.042 392.686 309.533 393.579 309.89C394.471 310.247 395.363 310.426 396.345 310.471C397.326 310.471 398.308 310.292 399.289 309.846ZM366.498 282.25L367.614 280.196C367.346 280.152 367.123 280.062 366.811 279.928C366.543 279.794 366.231 279.66 365.963 279.526C365.695 279.348 365.428 279.214 365.16 279.035C364.892 278.857 364.669 278.678 364.491 278.499C364.045 278.053 363.643 277.651 363.331 277.204C363.018 276.758 362.795 276.311 362.706 275.865C362.617 275.418 362.617 274.972 362.751 274.481C362.885 273.989 363.197 273.498 363.688 273.007L370.201 265.907L375.644 270.908L377.205 269.212L371.763 264.21L375.466 260.192L373.413 258.316L369.71 262.335L366.855 259.701L365.294 261.397L368.149 264.032L361.591 271.132C360.832 271.935 360.342 272.739 360.163 273.543C359.94 274.347 359.94 275.106 360.119 275.909C360.297 276.669 360.654 277.428 361.145 278.142C361.635 278.857 362.26 279.526 362.974 280.196C363.42 280.598 363.955 281 364.625 281.446C365.294 281.848 365.918 282.116 366.498 282.295M350.705 261.308C350.259 261.889 349.724 262.246 349.01 262.335C348.296 262.469 347.582 262.424 346.824 262.29C346.065 262.112 345.307 261.844 344.549 261.487C343.79 261.129 343.166 260.728 342.63 260.326C342.184 259.968 341.693 259.567 341.113 259.075C340.533 258.584 340.087 258.048 339.686 257.468C339.284 256.887 339.061 256.307 338.972 255.637C338.883 255.012 339.061 254.387 339.552 253.762C340.266 252.824 341.158 252.467 342.273 252.69C343.344 252.958 344.549 253.583 345.842 254.565L352.133 259.388L350.661 261.308H350.705ZM349.233 267.783L356.148 258.718C356.906 257.736 357.308 256.753 357.353 255.771C357.353 254.789 357.219 253.851 356.817 252.913C356.416 252.02 355.791 251.127 355.033 250.323C354.274 249.52 353.471 248.761 352.624 248.135C351.954 247.6 351.196 247.108 350.348 246.662C349.545 246.215 348.653 245.903 347.761 245.68C346.868 245.456 345.976 245.412 345.084 245.501C344.192 245.59 343.344 245.903 342.541 246.439L344.147 248.448C344.727 248.135 345.307 247.957 345.976 247.912C346.645 247.868 347.225 247.957 347.85 248.135C348.475 248.314 349.055 248.582 349.634 248.895C350.214 249.207 350.75 249.564 351.196 249.922C351.776 250.368 352.356 250.859 352.891 251.44C353.427 251.976 353.873 252.601 354.185 253.181C354.497 253.806 354.631 254.432 354.631 255.101C354.631 255.771 354.363 256.441 353.828 257.111L353.337 257.736L346.824 252.779C346.065 252.199 345.218 251.663 344.37 251.172C343.522 250.681 342.675 250.368 341.827 250.234C341.024 250.1 340.221 250.145 339.418 250.368C338.66 250.636 337.946 251.172 337.321 251.976C336.563 253.003 336.161 253.985 336.161 254.923C336.161 255.86 336.429 256.753 336.92 257.602C337.41 258.45 338.035 259.254 338.793 259.968C339.596 260.683 340.355 261.353 341.113 261.978C342.139 262.737 343.255 263.362 344.504 263.809C345.753 264.255 347.002 264.389 348.296 264.21L346.913 266.041L349.099 267.738L349.233 267.783ZM327.149 251.484L332.637 242.688C333.306 241.616 333.708 240.589 333.841 239.562C333.975 238.58 333.886 237.597 333.574 236.704C333.261 235.811 332.726 234.963 332.012 234.159C331.298 233.355 330.406 232.641 329.38 232.016C328.175 231.257 326.882 230.766 325.543 230.498C324.205 230.274 322.822 230.364 321.439 230.855L326.436 222.907L324.071 221.433L311.445 241.572L313.81 243.045L318.985 234.829C319.476 234.025 320.1 233.445 320.859 233.087C321.617 232.73 322.376 232.507 323.223 232.462C324.071 232.462 324.874 232.507 325.722 232.775C326.569 233.043 327.328 233.355 328.042 233.802C329.514 234.74 330.495 235.856 330.941 237.106C331.388 238.357 331.165 239.741 330.272 241.125L324.74 249.922L327.105 251.395L327.149 251.484ZM304.307 237.151L304.843 234.874C304.575 234.874 304.307 234.874 303.995 234.874C303.683 234.874 303.37 234.784 303.058 234.695C302.746 234.606 302.434 234.516 302.166 234.427C301.854 234.338 301.631 234.204 301.363 234.115C300.783 233.802 300.292 233.534 299.891 233.177C299.445 232.864 299.132 232.462 298.909 232.06C298.686 231.659 298.597 231.212 298.597 230.721C298.597 230.23 298.775 229.649 299.088 229.069L303.504 220.495L310.062 223.889L311.089 221.88L304.53 218.486L307.029 213.619L304.575 212.369L302.077 217.236L298.597 215.45L297.571 217.504L301.051 219.29L296.634 227.908C296.143 228.89 295.875 229.783 295.875 230.632C295.875 231.435 296.054 232.194 296.455 232.909C296.812 233.579 297.348 234.204 298.061 234.784C298.731 235.32 299.489 235.811 300.337 236.258C300.872 236.526 301.497 236.794 302.255 237.017C303.014 237.24 303.683 237.33 304.263 237.374M257.151 206.876C257.597 206.073 258.133 205.447 258.802 205.001C259.471 204.554 260.185 204.197 260.943 204.019C261.702 203.84 262.505 203.751 263.308 203.84C264.111 203.885 264.914 204.108 265.717 204.376C266.52 204.644 267.234 205.046 267.903 205.537C268.572 206.028 269.152 206.564 269.598 207.234C270.044 207.859 270.401 208.573 270.58 209.377C270.803 210.136 270.803 210.984 270.624 211.877L257.106 206.966L257.151 206.876ZM272.632 214.958L273.033 213.887C273.48 212.503 273.658 211.208 273.524 210.002C273.39 208.796 272.989 207.68 272.364 206.698C271.74 205.671 270.937 204.822 269.91 204.063C268.884 203.304 267.769 202.679 266.52 202.232C265.226 201.741 263.932 201.473 262.639 201.429C261.345 201.384 260.14 201.563 259.025 201.965C257.91 202.366 256.883 202.992 255.991 203.885C255.099 204.778 254.385 205.894 253.894 207.278C253.359 208.707 253.18 210.091 253.314 211.297C253.448 212.547 253.805 213.664 254.43 214.646C255.054 215.673 255.902 216.521 256.973 217.28C258.043 218.04 259.203 218.665 260.542 219.156C261.568 219.513 262.549 219.826 263.531 220.049C264.512 220.272 265.449 220.317 266.341 220.272C267.234 220.228 268.126 219.96 269.018 219.602C269.866 219.245 270.714 218.62 271.561 217.816L269.598 216.209C268.974 216.789 268.349 217.236 267.68 217.459C267.011 217.727 266.341 217.861 265.628 217.861C264.914 217.861 264.2 217.816 263.486 217.638C262.772 217.459 262.059 217.236 261.3 216.968C260.452 216.655 259.649 216.253 258.891 215.718C258.133 215.226 257.553 214.601 257.062 213.931C256.571 213.262 256.259 212.503 256.125 211.654C255.947 210.806 256.036 209.913 256.303 208.93L272.632 214.869V214.958ZM244.436 213.128L244.526 210.761C244.302 210.806 243.99 210.85 243.722 210.895C243.41 210.895 243.098 210.895 242.786 210.895C242.473 210.895 242.161 210.85 241.849 210.806C241.536 210.761 241.269 210.716 241.001 210.627C240.376 210.449 239.841 210.225 239.35 210.002C238.86 209.734 238.458 209.466 238.19 209.109C237.878 208.752 237.7 208.35 237.61 207.859C237.521 207.368 237.61 206.787 237.789 206.117L240.466 196.829L247.559 198.883L248.184 196.695L241.09 194.641L242.607 189.372L239.93 188.613L238.413 193.882L234.666 192.811L234.041 194.999L237.789 196.07L235.112 205.358C234.8 206.43 234.711 207.368 234.889 208.171C235.068 208.975 235.38 209.689 235.871 210.27C236.361 210.895 236.986 211.386 237.789 211.788C238.547 212.19 239.395 212.547 240.332 212.815C240.912 212.994 241.581 213.083 242.384 213.172C243.143 213.217 243.856 213.217 244.436 213.128ZM221.193 201.071C221.059 201.786 220.702 202.322 220.122 202.724C219.542 203.126 218.873 203.393 218.114 203.572C217.356 203.751 216.553 203.84 215.75 203.795C214.902 203.795 214.144 203.706 213.519 203.527C212.984 203.393 212.359 203.259 211.646 203.036C210.932 202.813 210.263 202.545 209.683 202.188C209.103 201.831 208.612 201.384 208.255 200.848C207.898 200.312 207.809 199.643 207.987 198.883C208.255 197.723 208.924 197.008 209.995 196.785C211.066 196.562 212.449 196.606 214.055 196.963L221.773 198.616L221.237 201.027L221.193 201.071ZM222.62 207.546L225.03 196.383C225.297 195.177 225.208 194.106 224.851 193.213C224.494 192.32 223.914 191.516 223.156 190.891C222.397 190.266 221.505 189.73 220.434 189.328C219.408 188.926 218.338 188.613 217.311 188.345C216.464 188.167 215.571 188.033 214.635 187.988C213.698 187.944 212.805 187.988 211.913 188.211C211.021 188.39 210.173 188.703 209.415 189.149C208.656 189.596 208.032 190.266 207.541 191.069L209.861 192.186C210.263 191.65 210.709 191.248 211.289 190.935C211.869 190.667 212.449 190.444 213.073 190.355C213.698 190.266 214.367 190.221 215.036 190.266C215.705 190.266 216.33 190.399 216.91 190.533C217.624 190.667 218.338 190.891 219.096 191.159C219.81 191.426 220.479 191.784 221.014 192.186C221.55 192.632 221.951 193.123 222.219 193.748C222.487 194.374 222.531 195.088 222.353 195.892L222.174 196.695L214.188 194.954C213.252 194.731 212.27 194.597 211.289 194.552C210.307 194.508 209.415 194.552 208.612 194.775C207.809 194.999 207.095 195.401 206.515 195.936C205.935 196.472 205.489 197.276 205.266 198.303C204.998 199.553 205.087 200.625 205.489 201.473C205.89 202.322 206.515 203.036 207.318 203.617C208.121 204.197 209.013 204.644 210.039 204.956C211.066 205.269 212.047 205.537 212.984 205.76C214.233 206.028 215.527 206.117 216.821 205.983C218.114 205.849 219.364 205.447 220.434 204.733L219.944 206.966L222.665 207.546H222.62ZM195.183 202.456L198.574 178.879L195.852 178.477L192.462 202.009L195.183 202.411V202.456ZM180.729 195.043C180.282 195.847 179.702 196.472 178.989 196.963C178.275 197.455 177.472 197.767 176.535 197.946C175.598 198.124 174.617 198.169 173.546 198.08C172.475 197.99 171.494 197.767 170.646 197.455C169.754 197.097 168.995 196.651 168.415 196.07C167.791 195.49 167.345 194.731 167.032 193.882C166.72 193.034 166.631 192.007 166.72 190.891C166.809 189.73 167.077 188.747 167.523 187.944C167.969 187.14 168.549 186.47 169.263 185.979C169.977 185.488 170.78 185.13 171.717 184.907C172.654 184.684 173.635 184.639 174.75 184.729C175.821 184.818 176.803 185.041 177.695 185.398C178.587 185.756 179.346 186.247 179.925 186.872C180.55 187.497 180.996 188.256 181.308 189.105C181.621 189.998 181.71 190.98 181.621 192.141C181.532 193.257 181.264 194.24 180.818 195.043M183.941 188.301C183.495 187.14 182.87 186.113 181.978 185.309C181.13 184.461 180.104 183.836 178.855 183.389C177.65 182.942 176.356 182.63 174.973 182.541C173.546 182.407 172.207 182.496 170.958 182.719C169.709 182.987 168.594 183.434 167.568 184.103C166.586 184.773 165.783 185.666 165.114 186.738C164.489 187.81 164.088 189.149 163.954 190.667C163.82 192.23 163.954 193.57 164.4 194.731C164.846 195.892 165.471 196.874 166.318 197.678C167.166 198.482 168.192 199.107 169.441 199.553C170.646 200 171.984 200.312 173.367 200.402C174.75 200.536 176.089 200.446 177.383 200.223C178.632 200 179.792 199.553 180.773 198.883C181.755 198.214 182.558 197.365 183.182 196.294C183.807 195.222 184.208 193.927 184.342 192.364C184.476 190.801 184.342 189.462 183.896 188.301M155.567 193.882L153.024 193.213C152.801 193.927 152.399 194.508 151.908 194.999C151.373 195.445 150.793 195.847 150.124 196.115C149.455 196.383 148.741 196.562 148.027 196.651C147.269 196.74 146.599 196.785 145.93 196.785C144.859 196.785 143.878 196.606 142.941 196.338C142.049 196.07 141.246 195.624 140.577 195.088C139.907 194.552 139.372 193.838 139.015 192.989C138.658 192.141 138.48 191.159 138.48 189.998C138.48 188.881 138.703 187.899 139.104 187.05C139.506 186.202 140.041 185.532 140.71 184.952C141.38 184.416 142.183 183.969 143.075 183.702C144.012 183.434 144.993 183.3 146.064 183.344C146.733 183.344 147.447 183.434 148.161 183.568C148.919 183.702 149.588 183.925 150.258 184.237C150.927 184.55 151.507 184.952 151.998 185.443C152.488 185.934 152.845 186.559 153.068 187.274L155.567 186.693C155.254 185.622 154.764 184.773 154.094 184.059C153.425 183.344 152.667 182.764 151.774 182.362C150.882 181.96 149.99 181.603 149.008 181.424C148.027 181.246 147.045 181.112 146.109 181.112C144.726 181.112 143.432 181.246 142.183 181.603C140.933 181.96 139.863 182.541 138.881 183.255C137.944 183.969 137.186 184.907 136.606 186.023C136.026 187.14 135.714 188.435 135.669 189.908C135.669 191.471 135.892 192.811 136.383 193.927C136.918 195.043 137.632 196.026 138.569 196.785C139.506 197.544 140.577 198.124 141.826 198.482C143.075 198.839 144.413 199.062 145.841 199.107C146.822 199.107 147.849 199.107 148.83 198.928C149.812 198.794 150.748 198.526 151.641 198.124C152.488 197.723 153.291 197.187 153.961 196.517C154.63 195.847 155.165 194.954 155.567 193.927M124.203 193.079C123.847 193.927 123.311 194.641 122.687 195.177C122.017 195.713 121.259 196.16 120.367 196.428C119.474 196.696 118.493 196.874 117.422 196.874C116.352 196.874 115.37 196.785 114.433 196.562C113.541 196.338 112.738 195.936 112.069 195.401C111.399 194.865 110.864 194.195 110.463 193.347C110.061 192.543 109.838 191.56 109.838 190.399C109.838 189.238 109.972 188.256 110.329 187.408C110.686 186.559 111.176 185.845 111.846 185.264C112.515 184.684 113.273 184.237 114.165 183.969C115.058 183.657 116.084 183.523 117.155 183.478C118.225 183.478 119.251 183.568 120.144 183.835C121.081 184.103 121.839 184.505 122.508 185.041C123.177 185.577 123.713 186.291 124.114 187.14C124.516 187.988 124.694 188.971 124.739 190.132C124.739 191.248 124.605 192.23 124.248 193.079M126.613 186.023C126.033 184.907 125.319 183.969 124.382 183.255C123.445 182.541 122.33 182.005 121.081 181.648C119.831 181.29 118.493 181.156 117.11 181.201C115.682 181.201 114.389 181.424 113.139 181.826C111.935 182.228 110.819 182.808 109.927 183.568C109.035 184.327 108.321 185.309 107.786 186.47C107.25 187.631 107.027 188.971 107.027 190.489C107.027 192.052 107.34 193.391 107.92 194.508C108.455 195.624 109.213 196.517 110.15 197.231C111.087 197.946 112.202 198.437 113.452 198.794C114.701 199.107 116.039 199.241 117.467 199.241C118.894 199.241 120.188 199.017 121.437 198.616C122.687 198.258 123.757 197.678 124.65 196.919C125.542 196.16 126.256 195.222 126.791 194.106C127.282 192.989 127.549 191.605 127.505 190.087C127.505 188.524 127.193 187.184 126.613 186.068M98.7739 199.687L98.1047 189.328C98.0155 188.078 97.7478 187.006 97.257 186.113C96.7663 185.22 96.1417 184.505 95.3833 183.969C94.5802 183.434 93.688 183.032 92.6172 182.808C91.5465 182.585 90.4312 182.541 89.2266 182.63C87.799 182.719 86.4606 183.076 85.2561 183.657C84.0515 184.237 83.0254 185.13 82.1777 186.336L81.5531 176.959L78.7871 177.138L80.3486 200.893L83.1146 200.714L82.49 191.025C82.4454 190.087 82.5793 189.238 82.9808 188.524C83.3823 187.81 83.873 187.14 84.5422 186.649C85.2114 186.113 85.9253 185.711 86.7729 185.443C87.6206 185.13 88.4236 184.996 89.2713 184.907C91.0112 184.773 92.4388 185.13 93.5541 185.89C94.6695 186.649 95.294 187.854 95.3833 189.551L96.0525 199.91L98.8185 199.732L98.7739 199.687ZM71.069 196.74L68.4815 196.383C68.3476 197.142 68.0353 197.767 67.5892 198.258C67.143 198.794 66.6077 199.241 65.9385 199.598C65.3139 199.955 64.6447 200.223 63.9309 200.402C63.2171 200.58 62.5033 200.714 61.8341 200.804C60.7633 200.938 59.7819 200.893 58.845 200.714C57.9081 200.536 57.0604 200.223 56.3466 199.777C55.6328 199.33 55.0082 198.705 54.5175 197.901C54.0267 197.097 53.7591 196.16 53.6252 194.999C53.4914 193.882 53.6252 192.855 53.8929 192.007C54.2052 191.114 54.6067 190.355 55.2313 189.73C55.8113 189.105 56.5697 188.569 57.462 188.211C58.3542 187.81 59.2911 187.586 60.3618 187.452C61.031 187.363 61.7448 187.363 62.5033 187.408C63.2617 187.408 63.9755 187.586 64.6447 187.765C65.3139 187.988 65.9831 188.301 66.5185 188.747C67.0984 189.194 67.5 189.73 67.8122 190.444L70.2214 189.551C69.7752 188.569 69.1506 187.72 68.3922 187.14C67.6338 186.515 66.7861 186.068 65.8939 185.756C64.957 185.443 64.0201 185.22 62.994 185.175C62.0125 185.13 61.031 185.13 60.0495 185.22C58.7111 185.354 57.4174 185.711 56.2128 186.202C55.0082 186.738 54.0267 187.408 53.1791 188.256C52.3314 189.105 51.7068 190.132 51.2607 191.337C50.8146 192.498 50.6807 193.838 50.8592 195.311C51.0376 196.829 51.4392 198.124 52.1084 199.196C52.7776 200.268 53.5806 201.116 54.6067 201.741C55.6328 202.366 56.7928 202.813 58.0419 202.992C59.3357 203.215 60.6741 203.259 62.0571 203.081C63.0386 202.992 64.0201 202.768 65.0016 202.545C65.9831 202.277 66.8754 201.875 67.6784 201.384C68.4814 200.893 69.1953 200.268 69.7752 199.509C70.3552 198.75 70.8013 197.812 71.0244 196.74" fill="#184775"/>
        </g>
    </g>
    <defs>
        <clipPath id="clip0_1_981">
            <rect width="822" height="443" fill="white"/>
        </clipPath>
    </defs>
</svg>
